<mxfile host="app.diagrams.net" modified="2023-01-12T00:01:05.458Z" agent="5.0 (Windows NT 10.0; Win64; x64) AppleWebKit/537.36 (KHTML, like Gecko) Chrome/108.0.0.0 Safari/537.36" version="20.7.4" etag="Du_Z_ryVP7x73Fz_DuvM" type="github">
  <diagram id="x23jb5G1XixdcUlhgKRt" name="Page-1">
    <mxGraphModel dx="1221" dy="668" grid="1" gridSize="10" guides="1" tooltips="1" connect="1" arrows="1" fold="1" page="1" pageScale="1" pageWidth="850" pageHeight="1100" math="0" shadow="0">
      <root>
        <mxCell id="0" />
        <mxCell id="1" parent="0" />
        <mxCell id="mV4v1Z0qtpCsgCYYpxog-8" value="" style="edgeStyle=orthogonalEdgeStyle;rounded=0;orthogonalLoop=1;jettySize=auto;html=1;" edge="1" parent="1" source="mV4v1Z0qtpCsgCYYpxog-1" target="mV4v1Z0qtpCsgCYYpxog-2">
          <mxGeometry relative="1" as="geometry" />
        </mxCell>
        <mxCell id="mV4v1Z0qtpCsgCYYpxog-1" value="Video&amp;nbsp;" style="sketch=0;outlineConnect=0;fontColor=#232F3E;gradientColor=none;fillColor=#3F8624;strokeColor=none;dashed=0;verticalLabelPosition=bottom;verticalAlign=top;align=center;html=1;fontSize=12;fontStyle=0;aspect=fixed;pointerEvents=1;shape=mxgraph.aws4.bucket_with_objects;" vertex="1" parent="1">
          <mxGeometry x="621.92" y="370" width="48.08" height="50" as="geometry" />
        </mxCell>
        <mxCell id="mV4v1Z0qtpCsgCYYpxog-2" value="Cloud Frount" style="sketch=0;points=[[0,0,0],[0.25,0,0],[0.5,0,0],[0.75,0,0],[1,0,0],[0,1,0],[0.25,1,0],[0.5,1,0],[0.75,1,0],[1,1,0],[0,0.25,0],[0,0.5,0],[0,0.75,0],[1,0.25,0],[1,0.5,0],[1,0.75,0]];outlineConnect=0;fontColor=#232F3E;gradientColor=#945DF2;gradientDirection=north;fillColor=#5A30B5;strokeColor=#ffffff;dashed=0;verticalLabelPosition=bottom;verticalAlign=top;align=center;html=1;fontSize=12;fontStyle=0;aspect=fixed;shape=mxgraph.aws4.resourceIcon;resIcon=mxgraph.aws4.cloudfront;" vertex="1" parent="1">
          <mxGeometry x="520" y="370" width="50" height="50" as="geometry" />
        </mxCell>
        <mxCell id="mV4v1Z0qtpCsgCYYpxog-3" value="User Login Details" style="sketch=0;outlineConnect=0;fontColor=#232F3E;gradientColor=none;fillColor=#2E27AD;strokeColor=none;dashed=0;verticalLabelPosition=bottom;verticalAlign=top;align=center;html=1;fontSize=12;fontStyle=0;aspect=fixed;pointerEvents=1;shape=mxgraph.aws4.rds_mysql_instance;" vertex="1" parent="1">
          <mxGeometry x="620" y="120" width="50" height="50" as="geometry" />
        </mxCell>
        <mxCell id="mV4v1Z0qtpCsgCYYpxog-4" value="Video Details" style="dashed=0;outlineConnect=0;html=1;align=center;labelPosition=center;verticalLabelPosition=bottom;verticalAlign=top;shape=mxgraph.webicons.mongodb;gradientColor=#DFDEDE" vertex="1" parent="1">
          <mxGeometry x="621.92" y="235" width="50" height="50" as="geometry" />
        </mxCell>
        <mxCell id="mV4v1Z0qtpCsgCYYpxog-5" value="Apache &lt;br&gt;Application server" style="dashed=0;outlineConnect=0;html=1;align=center;labelPosition=center;verticalLabelPosition=bottom;verticalAlign=top;shape=mxgraph.webicons.apache;gradientColor=#DFDEDE" vertex="1" parent="1">
          <mxGeometry x="375" y="235" width="50" height="60" as="geometry" />
        </mxCell>
        <mxCell id="mV4v1Z0qtpCsgCYYpxog-6" style="edgeStyle=orthogonalEdgeStyle;rounded=0;orthogonalLoop=1;jettySize=auto;html=1;exitX=0.5;exitY=1;exitDx=0;exitDy=0;exitPerimeter=0;" edge="1" parent="1" source="mV4v1Z0qtpCsgCYYpxog-2" target="mV4v1Z0qtpCsgCYYpxog-2">
          <mxGeometry relative="1" as="geometry" />
        </mxCell>
        <mxCell id="mV4v1Z0qtpCsgCYYpxog-10" value="" style="endArrow=classic;html=1;rounded=0;" edge="1" parent="1" source="mV4v1Z0qtpCsgCYYpxog-4" target="mV4v1Z0qtpCsgCYYpxog-5">
          <mxGeometry width="50" height="50" relative="1" as="geometry">
            <mxPoint x="400" y="370" as="sourcePoint" />
            <mxPoint x="450" y="320" as="targetPoint" />
          </mxGeometry>
        </mxCell>
        <mxCell id="mV4v1Z0qtpCsgCYYpxog-11" value="" style="endArrow=classic;html=1;rounded=0;" edge="1" parent="1" source="mV4v1Z0qtpCsgCYYpxog-3" target="mV4v1Z0qtpCsgCYYpxog-5">
          <mxGeometry width="50" height="50" relative="1" as="geometry">
            <mxPoint x="400" y="370" as="sourcePoint" />
            <mxPoint x="450" y="320" as="targetPoint" />
          </mxGeometry>
        </mxCell>
        <mxCell id="mV4v1Z0qtpCsgCYYpxog-12" value="" style="endArrow=classic;html=1;rounded=0;exitX=0;exitY=0.5;exitDx=0;exitDy=0;exitPerimeter=0;" edge="1" parent="1" source="mV4v1Z0qtpCsgCYYpxog-2" target="mV4v1Z0qtpCsgCYYpxog-5">
          <mxGeometry width="50" height="50" relative="1" as="geometry">
            <mxPoint x="400" y="370" as="sourcePoint" />
            <mxPoint x="450" y="320" as="targetPoint" />
          </mxGeometry>
        </mxCell>
        <mxCell id="mV4v1Z0qtpCsgCYYpxog-14" value="" style="shape=image;html=1;verticalAlign=top;verticalLabelPosition=bottom;labelBackgroundColor=#ffffff;imageAspect=0;aspect=fixed;image=https://cdn1.iconfinder.com/data/icons/hawcons/32/699096-icon-21-file-php-128.png" vertex="1" parent="1">
          <mxGeometry x="350" y="235" width="40" height="40" as="geometry" />
        </mxCell>
        <mxCell id="mV4v1Z0qtpCsgCYYpxog-15" value="Docker image" style="sketch=0;aspect=fixed;html=1;points=[];align=center;image;fontSize=12;image=img/lib/mscae/Docker.svg;" vertex="1" parent="1">
          <mxGeometry x="370" y="370" width="50" height="41" as="geometry" />
        </mxCell>
        <mxCell id="mV4v1Z0qtpCsgCYYpxog-21" value="" style="edgeStyle=orthogonalEdgeStyle;rounded=0;orthogonalLoop=1;jettySize=auto;html=1;" edge="1" parent="1" source="mV4v1Z0qtpCsgCYYpxog-17" target="mV4v1Z0qtpCsgCYYpxog-20">
          <mxGeometry relative="1" as="geometry" />
        </mxCell>
        <mxCell id="mV4v1Z0qtpCsgCYYpxog-17" value="git hub" style="shape=image;html=1;verticalAlign=top;verticalLabelPosition=bottom;labelBackgroundColor=#ffffff;imageAspect=0;aspect=fixed;image=https://cdn1.iconfinder.com/data/icons/picons-social/57/github-128.png" vertex="1" parent="1">
          <mxGeometry x="210" y="285" width="70" height="70" as="geometry" />
        </mxCell>
        <mxCell id="mV4v1Z0qtpCsgCYYpxog-18" value="" style="endArrow=classic;html=1;rounded=0;entryX=1;entryY=0.5;entryDx=0;entryDy=0;exitX=-0.06;exitY=0.407;exitDx=0;exitDy=0;exitPerimeter=0;" edge="1" parent="1" source="mV4v1Z0qtpCsgCYYpxog-15" target="mV4v1Z0qtpCsgCYYpxog-17">
          <mxGeometry width="50" height="50" relative="1" as="geometry">
            <mxPoint x="400" y="370" as="sourcePoint" />
            <mxPoint x="450" y="320" as="targetPoint" />
          </mxGeometry>
        </mxCell>
        <mxCell id="mV4v1Z0qtpCsgCYYpxog-19" value="" style="endArrow=classic;html=1;rounded=0;entryX=0.995;entryY=0.367;entryDx=0;entryDy=0;entryPerimeter=0;exitX=0.25;exitY=1;exitDx=0;exitDy=0;" edge="1" parent="1" source="mV4v1Z0qtpCsgCYYpxog-14" target="mV4v1Z0qtpCsgCYYpxog-17">
          <mxGeometry width="50" height="50" relative="1" as="geometry">
            <mxPoint x="400" y="370" as="sourcePoint" />
            <mxPoint x="450" y="320" as="targetPoint" />
          </mxGeometry>
        </mxCell>
        <mxCell id="mV4v1Z0qtpCsgCYYpxog-20" value="DigitalOcean" style="shape=image;html=1;verticalAlign=top;verticalLabelPosition=bottom;labelBackgroundColor=#ffffff;imageAspect=0;aspect=fixed;image=https://cdn2.iconfinder.com/data/icons/css-vol-1/24/digitalocean-128.png" vertex="1" parent="1">
          <mxGeometry x="60" y="292.5" width="55" height="55" as="geometry" />
        </mxCell>
      </root>
    </mxGraphModel>
  </diagram>
</mxfile>
